<?xml version="1.0" encoding="utf-8"?>
<!-- Generator: Adobe Illustrator 16.0.2, SVG Export Plug-In . SVG Version: 6.00 Build 0)  -->
<!DOCTYPE svg PUBLIC "-//W3C//DTD SVG 1.1//EN" "http://www.w3.org/Graphics/SVG/1.1/DTD/svg11.dtd">
<svg version="1.1" id="Default" xmlns="http://www.w3.org/2000/svg" xmlns:xlink="http://www.w3.org/1999/xlink" x="0px" y="0px"
	 width="245.729px" height="125px" viewBox="0 0 245.729 125" enable-background="new 0 0 245.729 125" xml:space="preserve">
	 
<rect fill="#EC6C2E" width="245.729" height="125"/>

<g fill="white">
	<path d="M96.089,34.501H80.743V19.167h15.346V34.501z M96.089,77.348V38.986H80.743v38.362H96.089z M19.167,19.167
		v15.335H38.64v42.745h18.795V34.501h19.474V19.167H19.167z M225.906,57.485c-0.117,1.912-0.428,3.807-0.996,5.625
		c-0.543,1.754-1.328,3.436-2.32,4.979c-1.375,2.135-3.146,3.992-5.209,5.43c-1.699,1.182-3.596,2.076-5.566,2.682
		c-1.975,0.605-4.025,0.924-6.086,1.049c-1.307,0.08-2.615,0.082-3.92,0.004c-1.857-0.111-3.709-0.391-5.504-0.895
		c-1.65-0.465-3.252-1.121-4.736-1.988c-1.521-0.885-2.922-1.992-4.156-3.26c-1.371-1.408-2.543-3.016-3.459-4.768
		c-0.225-0.432-0.432-0.873-0.627-1.318c-0.027,0.084-0.047,0.172-0.076,0.258c-0.545,1.551-1.234,2.994-2.064,4.33
		c-0.832,1.338-1.879,2.561-3.146,3.67c-1.266,1.111-2.627,1.98-4.088,2.605c-1.459,0.627-2.998,1.047-4.617,1.258
		c-1.619,0.213-3.25,0.27-4.895,0.17c-1.641-0.1-3.232-0.389-4.77-0.869c-1.537-0.482-2.979-1.246-4.328-2.295v3.197h-15.076v-6.881
		c-0.723,1.006-1.578,1.947-2.568,2.814c-1.266,1.111-2.629,1.98-4.09,2.605c-1.455,0.627-2.996,1.047-4.614,1.258
		c-1.618,0.213-3.251,0.27-4.894,0.17s-3.232-0.389-4.771-0.869c-1.537-0.482-2.979-1.246-4.325-2.295v3.197H99.924V19.167h15.078
		c0,6.453,0,12.907,0.001,19.359c1.216-1.057,2.567-1.91,4.054-2.558c1.485-0.648,3.041-1.079,4.666-1.289
		c1.627-0.21,3.26-0.234,4.897-0.071c1.635,0.163,3.217,0.551,4.747,1.164c1.527,0.613,2.916,1.422,4.17,2.427
		c1.014,0.81,1.918,1.731,2.727,2.75V19.167h15.078v19.359c1.221-1.057,2.57-1.91,4.055-2.558c1.486-0.648,3.043-1.079,4.668-1.289
		c1.625-0.21,3.258-0.234,4.896-0.071c1.637,0.163,3.219,0.551,4.746,1.164c1.529,0.613,2.918,1.422,4.174,2.427
		c1.254,1.006,2.354,2.173,3.297,3.5c0.943,1.328,1.689,2.78,2.234,4.359c0.043,0.121,0.076,0.241,0.115,0.362
		c0.201-0.448,0.418-0.889,0.652-1.32c0.865-1.598,1.945-3.074,3.205-4.369c1.295-1.332,2.773-2.473,4.375-3.388
		c0.803-0.459,1.633-0.86,2.488-1.202c0.926-0.37,1.877-0.67,2.844-0.906c1.967-0.479,3.986-0.69,6.01-0.729
		c2.246-0.043,4.494,0.125,6.693,0.584c1.742,0.365,3.457,0.915,5.074,1.681c0.918,0.436,1.803,0.94,2.639,1.52
		c0.824,0.569,1.604,1.21,2.322,1.912c2.018,1.962,3.594,4.396,4.617,7.039C225.697,50.47,226.119,54.009,225.906,57.485z
		 M130.834,55.366c0-3.631-0.75-6.336-2.242-8.115c-1.492-1.778-3.336-2.666-5.537-2.666c-2.33,0-4.253,0.903-5.772,2.705
		c-1.521,1.805-2.278,4.547-2.278,8.231c0,3.738,0.75,6.505,2.258,8.295c1.508,1.789,3.4,2.684,5.678,2.684
		c2.302,0,4.192-0.881,5.678-2.646C130.092,62.092,130.834,59.262,130.834,55.366z M171.174,55.366c0-3.631-0.75-6.336-2.242-8.115
		c-1.492-1.777-3.334-2.666-5.537-2.666c-2.328,0-4.252,0.903-5.771,2.705c-1.521,1.805-2.281,4.547-2.281,8.231
		c0,3.738,0.752,6.505,2.262,8.295c1.508,1.789,3.398,2.684,5.676,2.684c2.303,0,4.195-0.881,5.68-2.646
		C170.434,62.092,171.174,59.262,171.174,55.366z M211.516,55.5c-0.006-3.632-0.762-6.335-2.258-8.11
		c-1.492-1.774-3.34-2.659-5.541-2.656c-2.332,0.005-4.252,0.912-5.771,2.716c-1.516,1.806-2.268,4.551-2.264,8.236
		c0.008,3.738,0.764,6.504,2.273,8.289c1.512,1.789,3.404,2.676,5.682,2.672c2.303-0.004,4.191-0.885,5.674-2.654
		C210.785,62.227,211.523,59.397,211.516,55.5z"/>
	<path d="M19.303,91.375h4.926v13.881h0.362h3.749V91.373l4.926,0.002v-3.566H19.303V91.375z M43.511,97.904h8.411
		V94.34h-8.411v-2.967l9.027,0.002v-3.566H39.399v17.447h0.364h13.082v-3.564h-9.334L43.511,97.904L43.511,97.904z M70.354,98.656
		c-0.271,1.184-0.712,2.008-1.283,2.506c-0.585,0.516-1.257,0.766-2.078,0.768c-1.131-0.004-1.992-0.396-2.697-1.221
		c-0.672-0.787-1.059-2.217-1.058-4.299c-0.002-1.955,0.388-3.314,1.074-4.098c0.712-0.816,1.595-1.209,2.754-1.215
		c0.833,0.002,1.506,0.227,2.07,0.674c0.562,0.447,0.927,1.049,1.115,1.85l0.081,0.354l4.078-0.957l-0.105-0.367
		c-0.396-1.379-0.993-2.469-1.818-3.242c-1.353-1.275-3.126-1.914-5.249-1.91c-2.427-0.004-4.444,0.811-5.951,2.426
		c-1.521,1.623-2.264,3.893-2.261,6.738c-0.002,2.693,0.739,4.879,2.249,6.477c1.493,1.584,3.435,2.389,5.734,2.389
		c0.006,0,0.012,0,0.019,0c1.857,0.002,3.431-0.459,4.673-1.402c1.248-0.947,2.123-2.385,2.64-4.266l0.093-0.34l-3.991-1.246
		L70.354,98.656z M91.157,94.375h-5.875l0.002-6.566h-4.112v17.447h0.365h3.749v-7.316h5.873v7.316h4.113V87.809h-4.113
		L91.157,94.375L91.157,94.375z M112.86,98.133l-6.33-10.322h-3.825v17.445h0.363h3.474V95.154l6.227,10.102h3.928V87.811h-3.836
		V98.133z M131.994,87.502c-1.398,0-2.648,0.227-3.742,0.689c-0.83,0.35-1.592,0.883-2.279,1.594c-0.686,0.707-1.229,1.51-1.626,2.4
		c-0.536,1.223-0.795,2.705-0.795,4.449c-0.004,2.732,0.757,4.939,2.301,6.535c1.538,1.602,3.633,2.396,6.19,2.395
		c0.004,0,0.008,0,0.01,0c2.521,0,4.6-0.803,6.131-2.404c1.545-1.607,2.305-3.834,2.303-6.605c0.002-2.791-0.762-5.033-2.318-6.643
		C136.617,88.301,134.529,87.496,131.994,87.502z M135.068,100.625c-0.801,0.902-1.777,1.338-3.033,1.342
		c-1.256-0.004-2.238-0.445-3.054-1.354c-0.789-0.891-1.215-2.236-1.217-4.092c0-1.887,0.417-3.238,1.186-4.104
		c0.787-0.883,1.779-1.313,3.087-1.318c1.309,0.006,2.295,0.432,3.07,1.299c0.754,0.854,1.164,2.199,1.164,4.076
		C136.271,98.379,135.848,99.744,135.068,100.625z M151.244,87.945h-4.111v17.311h0.363h12.125v-3.564h-8.377V87.945z M173.758,87.5
		c-1.402,0-2.652,0.229-3.744,0.693c-0.83,0.348-1.592,0.883-2.279,1.592c-0.686,0.709-1.23,1.51-1.625,2.402
		c-0.537,1.221-0.797,2.705-0.797,4.447c-0.002,2.732,0.756,4.938,2.301,6.535c1.537,1.602,3.635,2.398,6.191,2.395
		c0.008,0,0.014,0,0.021,0c2.516,0,4.59-0.803,6.121-2.406c1.545-1.605,2.305-3.834,2.303-6.602c0.002-2.793-0.764-5.035-2.32-6.645
		C178.381,88.303,176.291,87.496,173.758,87.5z M176.83,100.625c-0.801,0.902-1.777,1.336-3.033,1.342
		c-1.256-0.006-2.24-0.443-3.053-1.355c-0.795-0.891-1.219-2.236-1.219-4.088c0-1.889,0.416-3.24,1.186-4.105
		c0.785-0.883,1.779-1.313,3.088-1.318c1.307,0.006,2.293,0.432,3.068,1.299c0.756,0.854,1.17,2.197,1.168,4.076
		C178.033,98.377,177.613,99.744,176.83,100.625z M196.623,99.135h0.365h3.498v1.582c-0.447,0.328-0.98,0.615-1.602,0.857
		c-0.672,0.262-1.336,0.391-1.994,0.391c-1.348-0.004-2.377-0.455-3.197-1.375c-0.801-0.902-1.234-2.305-1.234-4.254
		c0.004-1.797,0.424-3.092,1.211-3.945c0.799-0.857,1.85-1.287,3.252-1.291c0.914,0,1.637,0.221,2.219,0.643
		c0.584,0.432,0.975,1.002,1.191,1.76l0.09,0.314l4.043-0.74l-0.08-0.367c-0.344-1.611-1.146-2.906-2.389-3.83
		c-1.256-0.934-2.959-1.381-5.08-1.381c-1.641,0-3.035,0.283-4.174,0.877c-1.467,0.756-2.594,1.854-3.357,3.271
		c-0.758,1.416-1.137,3.029-1.137,4.828c0,1.654,0.336,3.203,1.016,4.619c0.68,1.434,1.715,2.549,3.078,3.318
		c1.361,0.771,2.951,1.15,4.75,1.15c1.422,0,2.824-0.27,4.203-0.803c1.371-0.527,2.438-1.146,3.197-1.877l0.107-0.109v-7.205h-7.975
		v3.566H196.623z M221.811,87.811l-3.648,6.262l-3.711-6.262h-4.867l6.434,10.15v7.293h0.365h3.746v-7.271l6.434-10.174h-4.752
		V87.811z"/>
</g>
</svg>
